<svg width="1024" height="1067" viewBox="0 0 1024 1067" fill="none" xmlns="http://www.w3.org/2000/svg">
<circle cx="512" cy="522" r="462" stroke="white" stroke-width="100"/>
<path d="M408 842C402 842 397.5 839.9 394.5 835.7C392.1 833.3 390.9 830 390.9 825.8C390.9 824.6 391.2 823.1 391.8 821.3L516.9 233.6C518.1 227 521.1 221.9 525.9 218.3C530.7 214.1 536.1 212 542.1 212H761.7C820.5 212 866.1 224 898.5 248C930.9 272 947.1 306.8 947.1 352.4C947.1 367.4 945.3 383.6 941.7 401C932.1 446.6 912.9 484.1 884.1 513.5C855.9 542.9 819.9 563.3 776.1 574.7L864.3 814.1C864.9 815.3 865.2 816.8 865.2 818.6C865.2 824.6 862.8 830 858 834.8C853.2 839.6 847.8 842 841.8 842H798.6C789.6 842 783 839.9 778.8 835.7C775.2 831.5 771.9 825.5 768.9 817.7L687 589.1H529.5L480 821.3C478.8 827.3 475.5 832.4 470.1 836.6C465.3 840.2 459.9 842 453.9 842H408ZM694.2 512.6C783.6 512.6 836.1 475.1 851.7 400.1C854.1 389.9 855.3 379.4 855.3 368.6C855.3 314.6 817.5 287.6 741.9 287.6H593.4L545.7 512.6H694.2Z" fill="white"/>
<line x1="488.969" y1="576.468" x2="411.505" y2="928.035" stroke="white" stroke-width="88"/>
<line x1="403.031" y1="930.468" x2="230.834" y2="149.22" stroke="white" stroke-width="88"/>
</svg>
